<?xml version="1.0" encoding="UTF-8"?>
<svg xmlns="http://www.w3.org/2000/svg" viewBox="0 0 64 64" width="512" height="512"><g id="coding-programing-layout-customize-web_design" data-name="coding-programing-layout-customize-web design"><path d="M59,2H5A3.009,3.009,0,0,0,2,5V59a3.009,3.009,0,0,0,3,3H59a3.009,3.009,0,0,0,3-3V5A3.009,3.009,0,0,0,59,2ZM31,60H5a1,1,0,0,1-1-1V12H31Zm29-1a1,1,0,0,1-1,1H33V58H57a1,1,0,0,0,1-1V45a1,1,0,0,0-1-1H33V41H45a1,1,0,0,0,1-1V28a1,1,0,0,0-1-1H33V12H60ZM33,56V46H56V56Zm0-17V29H44V39ZM60,10H4V5A1,1,0,0,1,5,4H59a1,1,0,0,1,1,1Z"/><path d="M8,6H7A1,1,0,0,0,7,8H8A1,1,0,0,0,8,6Z"/><path d="M12,6H11a1,1,0,0,0,0,2h1a1,1,0,0,0,0-2Z"/><path d="M16,6H15a1,1,0,0,0,0,2h1a1,1,0,0,0,0-2Z"/><path d="M58,7a1,1,0,0,0-1-1H22a1,1,0,0,0,0,2H57A1,1,0,0,0,58,7Z"/><path d="M19.168,20.555a1,1,0,0,0,1.387.277l3-2a1,1,0,0,0,0-1.664l-3-2a1,1,0,0,0-1.11,1.664L21.2,18l-1.752,1.168A1,1,0,0,0,19.168,20.555Z"/><path d="M6.445,18.832l3,2a1,1,0,1,0,1.11-1.664L8.8,18l1.752-1.168a1,1,0,1,0-1.11-1.664l-3,2a1,1,0,0,0,0,1.664Z"/><path d="M12.5,21.868A.988.988,0,0,0,13,22a1,1,0,0,0,.869-.5l4-7a1,1,0,1,0-1.736-.992l-4,7A1,1,0,0,0,12.5,21.868Z"/><path d="M7,26H9a1,1,0,0,0,0-2H7a1,1,0,0,0,0,2Z"/><path d="M7,30H21a1,1,0,0,0,0-2H7a1,1,0,0,0,0,2Z"/><path d="M13,26H28a1,1,0,0,0,0-2H13a1,1,0,0,0,0,2Z"/><path d="M7,42H9a1,1,0,0,0,0-2H7a1,1,0,0,0,0,2Z"/><path d="M28,44H7a1,1,0,0,0,0,2H28a1,1,0,0,0,0-2Z"/><path d="M21,40H13a1,1,0,0,0,0,2h8a1,1,0,0,0,0-2Z"/><path d="M7,54H9a1,1,0,0,0,0-2H7a1,1,0,0,0,0,2Z"/><path d="M28,52H13a1,1,0,0,0,0,2H28a1,1,0,0,0,0-2Z"/><path d="M7,38h8a1,1,0,0,0,0-2H7a1,1,0,0,0,0,2Z"/><path d="M21,36H19a1,1,0,0,0,0,2h2a1,1,0,0,0,0-2Z"/><path d="M7,50h8a1,1,0,0,0,0-2H7a1,1,0,0,0,0,2Z"/><path d="M21,50a1,1,0,0,0,0-2H19a1,1,0,0,0,0,2Z"/><path d="M15,56H7a1,1,0,0,0,0,2h8a1,1,0,0,0,0-2Z"/><path d="M21,56H19a1,1,0,0,0,0,2h2a1,1,0,0,0,0-2Z"/><path d="M7,34H9a1,1,0,0,0,0-2H7a1,1,0,0,0,0,2Z"/><path d="M28,33a1,1,0,0,0-1-1H13a1,1,0,0,0,0,2H27A1,1,0,0,0,28,33Z"/><path d="M36,23H55a1,1,0,0,0,1-1V17a1,1,0,0,0-1-1H36a1,1,0,0,0-1,1v5A1,1,0,0,0,36,23Zm1-5H54v3H37Z"/><path d="M48,28V40a1,1,0,0,0,1,1h8a1,1,0,0,0,1-1V28a1,1,0,0,0-1-1H49A1,1,0,0,0,48,28Zm2,1h6V39H50Z"/></g></svg>
